<?xml version="1.0" encoding="UTF-8"?>
<!DOCTYPE svg PUBLIC "-//W3C//DTD SVG 1.1//EN" "http://www.w3.org/Graphics/SVG/1.1/DTD/svg11.dtd">
<!-- Creator: CorelDRAW 2019 (64-Bit) -->
<svg xmlns="http://www.w3.org/2000/svg" xml:space="preserve" width="8.5512mm" height="4.8258mm" version="1.1" style="shape-rendering:geometricPrecision; text-rendering:geometricPrecision; image-rendering:optimizeQuality; fill-rule:evenodd; clip-rule:evenodd"
viewBox="0 0 855.12 482.58"
 xmlns:xlink="http://www.w3.org/1999/xlink"
 xmlns:xodm="http://www.corel.com/coreldraw/odm/2003">
 <defs>
  <style type="text/css">
   <![CDATA[
    .fil1 {fill:#FEFEFE}
    .fil2 {fill:#08A7E6}
    .fil0 {fill:#FEFEFE;fill-rule:nonzero}
   ]]>
  </style>
 </defs>
 <g id="Layer_x0020_1">
  <metadata id="CorelCorpID_0Corel-Layer"/>
  <g id="_2810630518560">
   <path class="fil0" d="M47.53 360.73l-43.31 0 0 -72.94 43.31 0 0 15.84 -23.61 0 0 11.44 21.86 0 0 15.83 -21.86 0 0 13.79 23.61 0 0 16.04zm74.66 -38.02c0,12.18 -3.36,21.56 -10.05,28.15 -6.71,6.58 -16.12,9.87 -28.26,9.87l-23.6 0 0 -72.94 25.25 0c11.7,0 20.74,3 27.1,8.98 6.37,5.99 9.56,14.64 9.56,25.94zm-20.45 0.74c0,-6.7 -1.33,-11.65 -3.97,-14.88 -2.64,-3.22 -6.66,-4.84 -12.05,-4.84l-5.74 0 0 40.86 4.39 0c6,0 10.39,-1.74 13.18,-5.21 2.79,-3.47 4.19,-8.78 4.19,-15.93zm95.51 -35.66l0 43.91c0,9.55 -2.69,16.96 -8.11,22.19 -5.39,5.24 -13.19,7.86 -23.37,7.86 -9.94,0 -17.59,-2.54 -22.92,-7.63 -5.34,-5.09 -8,-12.41 -8,-21.96l0 -44.37 19.8 0 0 42.81c0,5.14 0.95,8.88 2.9,11.22 1.92,2.33 4.76,3.49 8.52,3.49 4.04,0 6.95,-1.16 8.77,-3.48 1.81,-2.3 2.71,-6.09 2.71,-11.34l0 -42.7 19.7 0zm47.77 15.12c-4.68,0 -8.34,1.93 -10.96,5.76 -2.64,3.85 -3.95,9.14 -3.95,15.9 0,14.03 5.34,21.04 16.02,21.04 3.21,0 6.35,-0.44 9.38,-1.34 3.01,-0.91 6.06,-1.98 9.12,-3.25l0 16.68c-6.09,2.71 -12.97,4.05 -20.65,4.05 -11.01,0 -19.44,-3.2 -25.32,-9.58 -5.87,-6.39 -8.8,-15.62 -8.8,-27.69 0,-7.54 1.42,-14.18 4.26,-19.9 2.84,-5.72 6.93,-10.11 12.27,-13.19 5.35,-3.08 11.61,-4.62 18.83,-4.62 7.89,0 15.41,1.71 22.6,5.13l-6.03 15.51c-2.69,-1.28 -5.4,-2.33 -8.09,-3.2 -2.69,-0.87 -5.58,-1.3 -8.68,-1.3zm78.56 57.82l-3.58 -13.69 -23.7 0 -3.67 13.69 -21.66 0 23.78 -73.24 26.29 0 24.09 73.24 -21.55 0zm-7.68 -29.83l-3.13 -11.98c-0.74,-2.66 -1.62,-6.1 -2.68,-10.32 -1.04,-4.24 -1.73,-7.25 -2.06,-9.09 -0.3,1.7 -0.9,4.49 -1.77,8.39 -0.88,3.88 -2.84,11.56 -5.87,23l15.51 0zm62.16 29.83l-19.7 0 0 -56.8 -17.82 0 0 -16.14 55.29 0 0 16.14 -17.77 0 0 56.8zm28.17 0l0 -72.94 19.8 0 0 72.94 -19.8 0zm103.81 -36.55c0,12.27 -3,21.6 -9.02,27.99 -6.01,6.38 -14.83,9.58 -26.44,9.58 -11.45,0 -20.21,-3.22 -26.32,-9.63 -6.1,-6.42 -9.15,-15.77 -9.15,-28.03 0,-12.14 3.03,-21.42 9.11,-27.82 6.06,-6.4 14.88,-9.6 26.46,-9.6 11.61,0 20.39,3.18 26.39,9.54 5.99,6.35 8.97,15.68 8.97,27.97zm-50.17 -0.02c0,14.1 4.9,21.15 14.71,21.15 4.98,0 8.7,-1.72 11.1,-5.15 2.41,-3.42 3.62,-8.75 3.62,-16 0,-7.29 -1.22,-12.67 -3.68,-16.14 -2.43,-3.47 -6.09,-5.21 -10.94,-5.21 -9.88,0 -14.81,7.12 -14.81,21.35zm132.76 36.57l-25.84 0 -26.63 -51.38 -0.44 0c0.63,8.09 0.93,14.25 0.93,18.5l0 32.88 -17.45 0 0 -72.94 25.74 0 26.53 50.69 0.31 0c-0.48,-7.36 -0.7,-13.25 -0.7,-17.71l0 -32.98 17.55 0 0 72.94zm60.49 0l-3.58 -13.69 -23.7 0 -3.67 13.69 -21.66 0 23.78 -73.24 26.29 0 24.09 73.24 -21.55 0zm-7.68 -29.83l-3.13 -11.98c-0.74,-2.66 -1.62,-6.1 -2.68,-10.32 -1.04,-4.24 -1.73,-7.25 -2.06,-9.09 -0.3,1.7 -0.9,4.49 -1.77,8.39 -0.88,3.88 -2.84,11.56 -5.87,23l15.51 0zm37.11 29.83l0 -72.94 19.7 0 0 57 28.07 0 0 15.94 -47.77 0zm-678.33 122.42l0 -72.94 19.8 0 0 72.94 -19.8 0zm105 0l-25.84 0 -26.63 -51.38 -0.44 0c0.63,8.09 0.93,14.25 0.93,18.5l0 32.88 -17.45 0 0 -72.94 25.74 0 26.53 50.69 0.31 0c-0.48,-7.36 -0.7,-13.25 -0.7,-17.71l0 -32.98 17.55 0 0 72.94zm63.43 -22.13c0,4.53 -1.14,8.54 -3.44,12.05 -2.29,3.51 -5.6,6.23 -9.92,8.19 -4.33,1.94 -9.4,2.91 -15.21,2.91 -4.85,0 -8.93,-0.34 -12.22,-1.02 -3.29,-0.68 -6.71,-1.87 -10.27,-3.58l0 -17.57c3.75,1.93 7.67,3.43 11.72,4.52 4.05,1.07 7.78,1.61 11.17,1.61 2.92,0 5.07,-0.51 6.43,-1.51 1.36,-1.01 2.04,-2.32 2.04,-3.9 0,-1 -0.27,-1.87 -0.83,-2.62 -0.54,-0.75 -1.43,-1.5 -2.64,-2.27 -1.21,-0.76 -4.44,-2.33 -9.7,-4.7 -4.75,-2.16 -8.31,-4.25 -10.69,-6.28 -2.37,-2.02 -4.14,-4.36 -5.28,-6.98 -1.14,-2.62 -1.72,-5.73 -1.72,-9.33 0,-6.71 2.43,-11.95 7.32,-15.71 4.89,-3.76 11.61,-5.64 20.16,-5.64 7.54,0 15.23,1.74 23.08,5.23l-6.02 15.19c-6.83,-3.12 -12.7,-4.69 -17.66,-4.69 -2.55,0 -4.43,0.46 -5.58,1.37 -1.18,0.9 -1.76,2.02 -1.76,3.35 0,1.43 0.75,2.72 2.23,3.85 1.48,1.12 5.49,3.18 12.04,6.18 6.28,2.82 10.64,5.87 13.09,9.11 2.44,3.25 3.66,7.32 3.66,12.24zm43.47 22.13l-19.7 0 0 -56.8 -17.82 0 0 -16.14 55.29 0 0 16.14 -17.77 0 0 56.8zm28.17 0l0 -72.94 19.8 0 0 72.94 -19.8 0zm67.75 0l-19.7 0 0 -56.8 -17.82 0 0 -16.14 55.29 0 0 16.14 -17.77 0 0 56.8zm90.18 -72.94l0 43.91c0,9.55 -2.69,16.96 -8.11,22.19 -5.39,5.24 -13.19,7.86 -23.37,7.86 -9.94,0 -17.59,-2.54 -22.92,-7.63 -5.34,-5.09 -8,-12.41 -8,-21.96l0 -44.37 19.8 0 0 42.81c0,5.14 0.95,8.88 2.9,11.22 1.92,2.33 4.76,3.49 8.52,3.49 4.04,0 6.95,-1.16 8.77,-3.48 1.81,-2.3 2.71,-6.09 2.71,-11.34l0 -42.7 19.7 0zm47.48 72.94l-19.7 0 0 -56.8 -17.82 0 0 -16.14 55.29 0 0 16.14 -17.77 0 0 56.8zm28.17 0l0 -72.94 19.8 0 0 72.94 -19.8 0zm103.81 -36.55c0,12.27 -3,21.6 -9.02,27.99 -6.01,6.38 -14.83,9.58 -26.44,9.58 -11.45,0 -20.21,-3.22 -26.32,-9.63 -6.1,-6.42 -9.15,-15.77 -9.15,-28.03 0,-12.14 3.03,-21.42 9.11,-27.82 6.06,-6.4 14.88,-9.6 26.46,-9.6 11.61,0 20.39,3.18 26.39,9.54 5.99,6.35 8.97,15.68 8.97,27.97zm-50.17 -0.02c0,14.1 4.9,21.15 14.71,21.15 4.98,0 8.7,-1.72 11.1,-5.15 2.41,-3.42 3.62,-8.75 3.62,-16 0,-7.29 -1.22,-12.67 -3.68,-16.14 -2.43,-3.47 -6.09,-5.21 -10.94,-5.21 -9.88,0 -14.81,7.12 -14.81,21.35zm132.76 36.57l-25.84 0 -26.63 -51.38 -0.44 0c0.63,8.09 0.93,14.25 0.93,18.5l0 32.88 -17.45 0 0 -72.94 25.74 0 26.53 50.69 0.31 0c-0.48,-7.36 -0.7,-13.25 -0.7,-17.71l0 -32.98 17.55 0 0 72.94zm63.43 -22.13c0,4.53 -1.14,8.54 -3.44,12.05 -2.29,3.51 -5.6,6.23 -9.92,8.19 -4.33,1.94 -9.4,2.91 -15.21,2.91 -4.85,0 -8.93,-0.34 -12.22,-1.02 -3.29,-0.68 -6.71,-1.87 -10.27,-3.58l0 -17.57c3.75,1.93 7.67,3.43 11.72,4.52 4.05,1.07 7.78,1.61 11.17,1.61 2.92,0 5.07,-0.51 6.43,-1.51 1.36,-1.01 2.04,-2.32 2.04,-3.9 0,-1 -0.27,-1.87 -0.83,-2.62 -0.54,-0.75 -1.43,-1.5 -2.64,-2.27 -1.21,-0.76 -4.44,-2.33 -9.7,-4.7 -4.75,-2.16 -8.31,-4.25 -10.69,-6.28 -2.37,-2.02 -4.14,-4.36 -5.28,-6.98 -1.14,-2.62 -1.72,-5.73 -1.72,-9.33 0,-6.71 2.43,-11.95 7.32,-15.71 4.89,-3.76 11.61,-5.64 20.16,-5.64 7.54,0 15.23,1.74 23.08,5.23l-6.02 15.19c-6.83,-3.12 -12.7,-4.69 -17.66,-4.69 -2.55,0 -4.43,0.46 -5.58,1.37 -1.18,0.9 -1.76,2.02 -1.76,3.35 0,1.43 0.75,2.72 2.23,3.85 1.48,1.12 5.49,3.18 12.04,6.18 6.28,2.82 10.64,5.87 13.09,9.11 2.44,3.25 3.66,7.32 3.66,12.24z"/>
   <path class="fil1" d="M308.85 227.46l34.22 0 0 -144.35c0.46,0.52 0.81,1.52 1.11,2.15 1.12,2.33 1.93,4.52 3.13,6.81 0.38,0.73 0.71,1.51 1.04,2.21 0.35,0.76 0.67,1.45 1,2.24 0.29,0.67 0.65,1.47 1.02,2.23 3.23,6.71 6.21,13.67 9.45,20.37l3.06 6.68c0.4,0.82 0.73,1.59 1.11,2.34 0.34,0.66 0.71,1.48 1.04,2.21 0.38,0.87 0.62,1.37 1,2.25l2.13 4.55c0.75,1.51 1.35,2.93 2.03,4.47 0.34,0.78 0.69,1.45 1.04,2.22l2.12 4.57c0.36,0.85 0.67,1.36 1.03,2.21l8.33 18.06c0.34,0.77 0.68,1.45 1.03,2.21l2.12 4.57c0.36,0.86 0.68,1.36 1.04,2.22 2.24,5.33 5.02,10.47 7.32,15.8l9.35 20.28c0.35,0.82 0.65,1.35 1.03,2.21 1.21,2.72 4.06,9.15 5.34,11.49l33.04 0c0.08,-0.95 3.51,-7.63 4.17,-9.02l8.74 -18.04c1.99,-4.34 4.67,-9.41 6.51,-13.56 0.69,-1.58 1.37,-3.03 2.16,-4.53 0.41,-0.8 0.62,-1.42 1.04,-2.21l16.29 -33.8c0.7,-1.53 1.39,-3.08 2.16,-4.54 0.76,-1.46 1.39,-3.07 2.14,-4.54 0.4,-0.78 0.68,-1.29 1.07,-2.19 0.37,-0.88 0.76,-1.44 1.14,-2.3l21.72 -45.2c0.41,-0.79 0.62,-1.42 1.04,-2.21 0.23,-0.45 0.37,-0.68 0.58,-1.14 0.27,-0.58 0.18,-0.73 0.66,-1.07l-0.2 4.35c0,1.52 0,3.03 0,4.54 0,1.73 -0.21,2.8 -0.2,4.35 0.05,7.54 -0.39,15.2 -0.39,22.71 0,12.14 -0.58,24.03 -0.58,36.13 0,7.44 -0.39,15.09 -0.39,22.51l-0.21 4.35c-0.03,2.73 0.28,6.69 -0.02,9.25 -0.3,2.6 -0.18,6 -0.16,8.92 0,1.63 -0.2,2.61 -0.2,4.35 0.01,7.56 -0.39,15.33 -0.39,22.89l35.98 0 0 -173.1 -52.99 0c-0.77,0 -2.89,5.05 -3.27,5.92l-3.06 6.31c-0.39,0.75 -0.58,1.33 -0.97,2.08 -0.43,0.84 -0.66,1.31 -1.05,2.2l-9.05 18.86c-0.38,0.72 -0.64,1.32 -0.98,2.08 -0.64,1.39 -1.4,2.8 -2.09,4.23l-4.03 8.4c-0.38,0.85 -0.59,1.27 -0.99,2.06 -0.38,0.78 -0.57,1.32 -0.97,2.09 -1.79,3.4 -3.25,7.08 -5.02,10.47 -2.1,4 -5.07,10.45 -7.04,14.75 -1.62,3.51 -3.47,6.92 -5.03,10.46 -1.87,4.25 -4.29,8.36 -6.09,12.65l-6.02 12.52c-2.5,4.83 -4.61,9.88 -7.04,14.76 -0.51,1.04 -1.3,3.45 -2.22,4.1 -0.08,-0.92 -1.4,-3.3 -1.89,-4.23 -0.75,-1.45 -1.33,-2.77 -2.08,-4.22 -2.15,-4.12 -3.92,-8.38 -6.07,-12.49l-2.05 -4.25c-1.13,-2.69 -2.72,-5.77 -4.07,-8.36l-22.35 -46.1c-0.71,-1.4 -1.35,-2.78 -2.09,-4.22 -2.5,-4.82 -4.53,-9.76 -7.04,-14.57 -0.42,-0.81 -0.72,-1.34 -1.07,-2.18l-5.06 -10.43c-2.11,-4.06 -3.98,-8.41 -6.06,-12.49l-3.13 -6.43c-0.35,-0.68 -1.55,-3.97 -2.34,-3.97l-53.58 0 0 173.1z"/>
   <path class="fil1" d="M4.22 226.7l36.96 0 0 -129.78c0.67,0.48 8.69,10.35 10.32,12.15l10.29 12.17c0.59,0.73 1.14,1.31 1.68,1.98l22.31 26.46c1.15,1.4 2.26,2.64 3.44,4.06l10.28 12.18c0.62,0.68 1.05,1.31 1.66,1.99l22.33 26.44c0.55,0.68 1.1,1.26 1.68,1.97l24.87 29.48c0.7,0.87 0.54,0.9 1.02,0.9l43.21 0 0 -173.1 -36.75 0 0 129.21 -8.52 -9.92c-0.64,-0.77 -1.14,-1.32 -1.76,-2.08 -4.4,-5.38 -9.36,-10.85 -13.75,-16.21 -1.15,-1.41 -2.25,-2.62 -3.43,-4.06l-17.21 -20.24c-1.16,-1.44 -2.31,-2.66 -3.43,-4.06l-42.87 -50.46c-0.64,-0.71 -1.11,-1.36 -1.76,-2.08l-16.31 -19.22c-0.35,-0.41 -0.45,-0.88 -1.05,-0.88l-43.21 0 0 173.1z"/>
   <path class="fil1" d="M565.19 80.84l69.21 0c0,48.95 -0.39,97.63 -0.39,146.62l38.13 0 0 -146.62 68.83 0 0 -26.48 -175.78 0 0 26.48z"/>
   <path class="fil2" d="M735.88 227.46l41.45 0c0.34,-0.67 0.74,-1.85 1,-2.63l7.14 -19.01c1.3,-3.71 2.74,-7.15 4.06,-10.83l18.28 -48.72c0.37,-0.95 0.68,-1.85 1.03,-2.79l17.32 -46.23c1.48,-3.62 2.59,-7.19 4.05,-10.84 0.71,-1.8 1.45,-3.67 2.04,-5.4l10.19 -27.22 -41.45 0 -17.18 45.99c-0.34,0.92 -0.68,1.82 -1.06,2.76l-10.14 27.08c-1.39,3.61 -2.68,7.3 -4.1,10.98l-21.36 56.9c-2.05,5.89 -5.14,13.17 -7.14,19.01 -0.31,0.92 -0.65,1.77 -0.97,2.65l-3.16 8.3z"/>
   <polygon class="fil1" points="232.21,227.46 270.33,227.46 270.33,54.36 232.21,54.36 "/>
   <path class="fil2" d="M233.58 37.71l35.19 0c-0.7,-1.29 -1.32,-2.57 -2.11,-3.82l-8.71 -15.42c-0.79,-1.55 -6.18,-11.17 -6.78,-11.6 -0.16,0.69 -1.62,3.03 -2.09,3.85l-2.25 3.87c-2.37,3.78 -6.58,11.4 -8.82,15.3 -1.53,2.66 -2.99,5.18 -4.43,7.82z"/>
  </g>
 </g>
</svg>
