<?xml version="1.0" encoding="utf-8"?>
<!-- Generator: Adobe Illustrator 24.0.1, SVG Export Plug-In . SVG Version: 6.00 Build 0)  -->
<svg version="1.1" id="Layer_1" xmlns="http://www.w3.org/2000/svg" xmlns:xlink="http://www.w3.org/1999/xlink" x="0px" y="0px"
	 viewBox="0 0 384.85 512" style="enable-background:new 0 0 384.85 512;" xml:space="preserve">
<style type="text/css">
	.st0{fill:#E5B814;}
</style>
<g>
	<g>
		<path class="st0" d="M100.21,507.89c-9.89-4.55-12.66-12.4-12.61-22.97c0.32-64.26,0.13-71.06,0.24-135.33
			c0.01-3.99-1.13-6.25-4.47-8.83c-3.3-2.55-5.71-6.97-7.12-11.05c-1.7-4.93-2.12-10.34-2.76-15.59c-0.4-3.27-1.92-4.68-5.1-5.08
			c-5.06-0.64-10.1-1.52-15.13-2.41c-9.49-1.68-15.4-9.07-14.62-18.69c0.43-5.26,1.34-10.5,2.28-15.7c0.67-3.69,0.02-6.09-3.87-7.66
			c-4.55-1.83-8.85-4.31-13.15-6.69c-8.82-4.88-11.82-14.27-7.52-23.42c2.1-4.45,4.14-8.96,6.71-13.15
			c2.17-3.54,1.39-5.81-1.49-8.39c-3.67-3.28-7.06-6.89-10.4-10.51c-6.9-7.47-6.82-17.13,0.2-24.56c3.63-3.85,7.66-7.36,11.02-11.42
			c1.13-1.37,1.61-4.29,0.96-5.93c-2.02-5.06-4.85-9.79-7.15-14.76c-4.12-8.9-1.06-18.26,7.52-22.99c4.63-2.56,9.33-5,14.12-7.22
			c2.76-1.28,3.74-2.95,3.2-5.98c-0.96-5.38-1.85-10.8-2.36-16.24c-0.96-10.16,4.43-17.31,14.4-19.29
			c5.36-1.07,10.84-1.63,16.13-2.93c1.57-0.39,3.52-2.34,3.89-3.9c1.31-5.48,1.9-11.14,2.98-16.69c1.75-9.04,9.58-14.92,18.7-13.93
			c5.25,0.57,10.5,1.38,15.69,2.37c3.52,0.68,5.77,0.03,7.31-3.57c2-4.68,4.48-9.17,6.96-13.64c4.74-8.55,14.07-11.63,22.99-7.55
			c4.8,2.2,9.56,4.54,14.15,7.15c2.88,1.63,4.75,1.35,7.07-1.09c4.39-4.62,9.1-8.95,13.84-13.22c1.42-1.28,3.37-1.97,5.08-2.93
			c2.92,0,5.85,0,8.77,0c6.33,5.37,12.82,10.57,18.9,16.21c2.43,2.26,4.2,2.74,7.09,1.08c4.42-2.55,9.04-4.77,13.64-6.97
			c9.32-4.45,18.82-1.34,23.8,7.79c2.36,4.32,4.77,8.65,6.68,13.18c1.53,3.63,3.81,4.23,7.32,3.56c5.01-0.97,10.08-1.71,15.15-2.3
			c9.52-1.12,17.38,4.61,19.23,13.92c0.82,4.12,1.97,8.26,2.04,12.41c0.11,6.42,3.15,8.85,9.22,9.13c3.98,0.19,7.94,1.15,11.87,1.95
			c9.68,1.97,15.13,9.04,14.28,18.89c-0.49,5.63-1.83,11.19-2.18,16.82c-0.11,1.77,1.31,4.4,2.84,5.37
			c4.29,2.74,9.03,4.75,13.52,7.18c9.5,5.15,12.55,14.44,7.92,24.14c-2.28,4.78-4.95,9.38-6.94,14.26
			c-0.62,1.53-0.21,4.28,0.84,5.52c3.41,4.04,7.39,7.58,11.05,11.41c7.31,7.65,7.45,17.24,0.29,24.99
			c-3.47,3.76-7.03,7.44-10.79,10.9c-2.39,2.2-2.97,4.09-1.25,7.06c2.47,4.25,4.51,8.76,6.65,13.19c4.82,10.02,1.84,19.2-7.98,24.52
			c-4.49,2.43-9.21,4.47-13.53,7.16c-1.42,0.88-2.76,3.33-2.65,4.95c0.4,5.63,1.68,11.19,2.2,16.82
			c0.95,10.32-4.86,17.68-14.99,19.43c-4.14,0.72-8.27,1.91-12.42,1.99c-5.63,0.11-7.49,2.82-7.85,7.99
			c-0.32,4.53-0.68,9.3-2.35,13.43c-1.69,4.17-4.46,8.32-7.83,11.25c-2.48,2.16-3.7,3.78-3.67,7.03c0.13,19.55,0.07-18.37,0.06,1.18
			c0,1.82,0.05,3.67-0.2,5.47c-0.62,4.41-3.29,6.9-7.7,7.06c-4.42,0.16-7.25-2.2-8.17-6.53c-0.37-1.76-0.37-3.63-0.37-5.44
			c-0.02-19.55-0.01,18.37-0.01-1.18c0-1.81,0-3.61,0-6.13c-3.41-0.53-7.7-2.52-9.48-1.18c-3.09,2.32-4.81,6.61-6.69,10.29
			c-0.67,1.31-0.15,3.23-0.15,4.88c0,56.82,0.05,56.17-0.1,112.98c-0.01,4.58,1.13,7.89,4.55,10.99c3.62,3.27,6.62,7.23,9.89,10.89
			c0.56-0.27,1.11-0.55,1.67-0.82c0.1-1.86,0.29-3.71,0.29-5.57c0.02-29.23,0.01-58.46,0.02-87.69c0-1.64-0.08-3.3,0.07-4.93
			c0.47-5.11,3.86-8.52,8.3-8.46c4.48,0.06,7.91,3.49,7.98,8.66c0.17,12.6,0.09,25.21,0.09,37.82c0.01,18.09-0.41,36.19,0.15,54.25
			c0.32,10.57-2.68,18.45-12.61,22.98c-2.92,0-5.85,0-8.77,0c-4.02-3.03-8.42-5.67-12-9.16c-21.93-21.39-43.66-42.97-65.48-64.47
			c-1.78-1.76-3.68-3.4-5.84-5.39c-1.88,1.74-3.5,3.15-5.02,4.65c-22.08,21.76-44.08,43.59-66.27,65.22
			c-3.58,3.49-7.99,6.12-12.01,9.15C106.06,507.89,103.14,507.89,100.21,507.89z M139.83,351.93c5.72-2.86,11.05-5.55,16.41-8.19
			c9.22-4.53,15.62-3.67,22.82,3.59c4.21,4.25,7.91,9.01,11.83,13.53c0.96,0.04,1.93,0.07,2.89,0.11c4.03-4.68,7.82-9.6,12.14-13.99
			c6.67-6.77,13.35-7.7,21.92-3.55c5.55,2.68,11.03,5.49,17.02,8.47c3.15-6.08,6.04-11.93,9.16-17.65
			c4.05-7.43,10.23-10.45,18.67-9.31c6.43,0.87,12.85,1.78,19.51,2.71c1.11-6.63,2.12-12.55,3.1-18.48
			c1.55-9.26,6.46-14.21,15.62-15.79c6.2-1.07,12.4-2.21,18.79-3.35c-1-7.06-2.05-13.36-2.74-19.7
			c-0.97-9.03,2.06-14.47,10.11-18.75c5.45-2.89,10.93-5.71,16.84-8.78c-2.86-5.73-5.56-11.05-8.18-16.41
			c-4.46-9.09-3.44-15.63,3.54-22.89c4.26-4.42,8.57-8.79,13.56-13.9c-4.79-4.44-9.2-8.28-13.34-12.4
			c-7.32-7.3-8.28-13.93-3.65-23.3c2.64-5.33,5.33-10.63,8.1-16.15c-6.3-3.28-11.98-6.17-17.59-9.18
			c-7.21-3.88-10.46-9.95-9.45-18.11c0.67-5.43,1.48-10.85,2.38-16.24c0.5-2.97-0.41-4.33-3.54-4.66
			c-4.71-0.51-9.37-1.45-14.05-2.19c-9.85-1.57-14.86-6.55-16.45-16.27c-0.99-6.03-2.07-12.04-3.15-18.34
			c-6.39,0.98-11.96,1.89-17.55,2.69C263.88,56.97,258.1,54,253.1,44.51c-2.7-5.12-5.4-10.25-7.98-15.15c-0.9,0-1.31-0.12-1.6,0.02
			c-5.25,2.55-10.46,5.17-15.71,7.7c-8.53,4.1-15.31,3.12-21.95-3.54c-4.36-4.37-8.34-9.11-13.27-14.53
			c-5.15,5.45-9.16,9.91-13.4,14.13c-7.15,7.11-13.82,8.15-22.85,3.75c-5.37-2.62-10.69-5.33-16.6-8.28
			c-2.76,5.37-5.3,10.36-7.88,15.33c-5.37,10.32-11.23,13.23-22.76,11.39c-5.36-0.85-10.74-1.63-16.63-2.52
			C91.38,59,90.35,64.7,89.39,70.4c-1.81,10.85-6.44,15.36-17.48,17.1c-5.53,0.87-11.03,1.89-17.03,2.93
			c0.95,6.79,1.98,13.06,2.67,19.36c1.04,9.46-1.83,14.8-10.16,19.25c-5.42,2.9-10.9,5.68-16.73,8.7
			c2.81,5.65,5.44,10.81,7.97,16.02c4.72,9.73,3.75,16.22-3.85,23.74c-4.12,4.08-8.59,7.8-14.35,12.99
			c5.84,5.13,10.71,8.99,15.1,13.35c6.7,6.65,7.65,13.46,3.55,21.95c-2.68,5.55-5.46,11.04-8.4,16.96c5.03,2.64,9.67,5.1,14.32,7.53
			c11.63,6.09,14.24,11.38,12.14,24.39c-0.81,4.99-1.51,10-2.34,15.45c6.66,1.15,12.73,2.16,18.79,3.25
			c9.33,1.68,14.1,6.52,15.65,15.76c1.02,6.06,2.06,12.11,3.16,18.59c6.65-0.94,12.75-1.83,18.86-2.65
			c9.48-1.27,15.13,1.62,19.75,10.15C133.96,340.63,136.77,346.11,139.83,351.93z M247.37,368.19c-10.01,0.52-16.96-5.57-24.85-9.09
			c-2.77-1.24-4.5-1.3-6.63,1.01c-3.59,3.89-7.4,7.58-11.29,11.17c-7.51,6.93-17.14,6.89-24.61-0.06c-3.74-3.48-7.5-6.99-10.89-10.8
			c-2.42-2.73-4.47-2.58-7.53-1.09c-7.74,3.75-15.69,7.08-24.18,10.85c0,47.54,0,39.05,0,88.97c1.99-1.77,3.35-2.88,4.59-4.1
			c11.85-11.66,23.67-23.34,35.51-35.01c9.8-9.67,19.88-9.68,29.61-0.06c11.95,11.81,23.91,23.61,35.89,35.41
			c1.17,1.15,2.44,2.2,4.38,3.95C247.37,409.07,247.37,417.64,247.37,368.19z M104.63,490.66c0.43,0.3,0.87,0.6,1.3,0.91
			c3.29-3.57,6.32-7.43,9.96-10.62c3.63-3.18,4.75-6.7,4.74-11.45c-0.17-56.78-0.06-56.1-0.31-112.89
			c-0.02-4.31-1.99-8.69-3.55-12.85c-0.42-1.12-2.67-2.15-4.09-2.17c-2.66-0.03-5.33,0.7-8.04,1.13
			C104.63,411.5,104.63,422.35,104.63,490.66z"/>
		<path class="st0" d="M56.3,190.08c0.04-66.65,48.16-123.2,114.16-134.14c6.62-1.1,11.04,1.31,11.88,6.49
			c0.83,5.11-2.5,8.61-9.28,9.75c-56.04,9.46-99.06,58.08-100.26,113.31c-1.29,59.65,37.69,109.6,95.12,121.9
			c67.59,14.48,134.74-33.4,142.91-101.89c7.63-63.95-33.17-120.26-96.06-132.6c-1.25-0.25-2.52-0.48-3.74-0.82
			c-4.58-1.27-7.26-5.16-6.49-9.37c0.82-4.51,5-7.85,9.71-6.66c10.4,2.63,21.08,4.86,30.9,8.99
			c54.68,23.01,88.34,78.16,82.55,137.22c-6.07,61.94-50.18,110.17-109.61,121.64C134.25,340.1,56.25,275.58,56.3,190.08z"/>
		<path class="st0" d="M296.82,190.15c-0.28,58.57-46.94,104.84-105.51,104.63c-57.19-0.21-103.82-47.47-103.55-104.94
			c0.27-57.67,47.65-104.72,104.96-104.24C250.33,86.09,297.09,133.06,296.82,190.15z M104.24,190.62
			c0.16,48.49,39.48,87.73,87.83,87.66c49.22-0.07,88.26-39.16,88.22-88.35c-0.04-48.33-39.41-87.72-87.79-87.84
			C143.74,101.97,104.08,141.75,104.24,190.62z"/>
		<path class="st0" d="M250.53,181.1c-1.87,3.18-3.31,6.74-5.7,9.46c-3.96,4.51-8.44,8.59-12.89,12.63
			c-2.38,2.15-3.41,4.19-2.61,7.57c1.37,5.84,2.06,11.84,3.15,17.76c1.05,5.69-0.24,10.58-4.92,14.15
			c-4.68,3.57-9.76,3.6-14.91,0.93c-4.85-2.52-9.89-4.76-14.47-7.71c-4.24-2.72-7.77-2.49-11.92,0.1
			c-4.63,2.89-9.62,5.19-14.48,7.68c-4.96,2.54-9.89,2.52-14.45-0.82c-4.73-3.45-6.35-8.26-5.33-13.99
			c0.64-3.59,0.75-7.37,2.01-10.73c3.33-8.91,0.28-15.18-6.97-20.46c-3.06-2.23-5.69-5.14-8.25-7.98
			c-7.43-8.25-3.55-20.21,7.3-22.32c6.43-1.25,12.94-2.28,19.46-2.91c3.46-0.33,5.06-1.93,6.38-4.86
			c2.55-5.64,5.45-11.12,8.21-16.67c2.51-5.05,6.57-7.76,12.21-7.73c5.64,0.02,9.66,2.8,12.15,7.84c2.83,5.71,5.46,11.55,8.66,17.05
			c1.07,1.83,3.47,3.55,5.54,4c6.58,1.42,13.33,2.07,19.95,3.31C245.45,168.66,249.51,173.78,250.53,181.1z M169.2,226.43
			c4.37-2.26,7.99-3.67,11.08-5.82c8.25-5.75,16.15-5.5,24.33,0.12c3.06,2.1,6.62,3.49,10.68,5.58c-0.98-5.93-1.57-10.98-2.71-15.9
			c-1.51-6.54,0.11-11.83,5.13-16.24c3.86-3.38,7.59-6.91,11.38-10.37c-6.38-2.22-11.74-3.16-17.14-3.82
			c-5.83-0.71-9.63-3.83-12.06-9.04c-2.27-4.86-4.75-9.62-7.62-15.38c-2.94,5.92-5.39,10.75-7.73,15.62
			c-2.39,4.97-6.1,8.01-11.69,8.75c-5.55,0.73-11.07,1.69-18.12,2.79c5.03,4.77,9.08,8.64,13.17,12.47c4.1,3.83,5.38,8.5,4.38,13.94
			C171.29,214.46,170.37,219.83,169.2,226.43z"/>
	</g>
</g>
</svg>
